<?xml version="1.0" encoding="UTF-8"?>
<svg width="97px" height="40px" viewBox="0 0 97 40" version="1.1" xmlns="http://www.w3.org/2000/svg" xmlns:xlink="http://www.w3.org/1999/xlink">
    <!-- Generator: Sketch 53.2 (72643) - https://sketchapp.com -->
    <title>logo</title>
    <desc>Created with Sketch.</desc>
    <defs>
        <polygon id="path-1" points="0 0.0143315508 41.2722139 0.0143315508 41.2722139 39.7860963 0 39.7860963"></polygon>
    </defs>
    <g id="G1-Partners" stroke="none" stroke-width="1" fill="none" fill-rule="evenodd">
        <g transform="translate(-40.000000, -20.000000)" id="Group-3">
            <g>
                <g id="logo" transform="translate(40.000000, 20.000000)">
                    <path d="M50.6528984,26.2542888 L50.6528984,20.6613476 C50.6528984,20.3086203 50.6128984,20.0613476 50.5480856,19.9165348 C50.4828449,19.7676578 50.3654118,19.6574973 50.1996364,19.5819893 C50.1348235,19.5556791 50.0571765,19.531508 49.9709733,19.5148235 C49.8860535,19.4970695 49.7906524,19.4844492 49.6837005,19.4739679 C49.6700107,19.4739679 49.6522567,19.4739679 49.6364278,19.4696898 C49.4193155,19.4393155 49.3104385,19.3890481 49.3104385,19.3229519 C49.3104385,19.2808128 49.3311872,19.249369 49.3752513,19.2254118 C49.4193155,19.1991016 49.4802781,19.1886203 49.5557861,19.1886203 C49.5872299,19.1886203 49.662738,19.1886203 49.7823102,19.1950374 C50.3256257,19.2273369 50.8456257,19.2420963 51.3429519,19.2420963 C51.8903316,19.2420963 52.4336471,19.2273369 52.9728984,19.1950374 C53.0608128,19.1886203 53.1172834,19.1886203 53.1384599,19.1886203 C53.2139679,19.1886203 53.2747166,19.1991016 53.3145027,19.2189947 C53.3585668,19.2380321 53.3808128,19.2684064 53.3859465,19.307123 C53.3859465,19.3742888 53.2948235,19.4256257 53.1121497,19.4602781 C53.0903316,19.4645561 53.0704385,19.4696898 53.0524706,19.4739679 C52.989369,19.4739679 52.9234866,19.4801711 52.8520428,19.4906524 C52.7816684,19.5043422 52.6980321,19.5191016 52.6056257,19.5411337 C52.4043422,19.5946096 52.2552513,19.702631 52.1735401,19.8619893 C52.0907594,20.0224171 52.0413476,20.2900107 52.0413476,20.6613476 L52.0413476,25.3914011 C52.0413476,25.9565348 52.0205989,26.378139 51.9615615,26.6540749 C51.9050909,26.9287273 51.8150374,27.1742888 51.6869091,27.3881925 C51.4205989,27.796107 51.0691551,28.0992086 50.6317219,28.2953583 C50.1934332,28.489369 49.6439144,28.5890481 48.9810267,28.5890481 C48.3664813,28.5890481 47.8798503,28.489369 47.5168556,28.2891551 C47.1549305,28.0876578 46.973754,27.8243422 46.973754,27.4940749 C46.973754,27.3387807 47.0240214,27.213861 47.1269091,27.1186738 C47.2295829,27.0232727 47.3699037,26.973861 47.5482995,26.973861 C47.6762139,26.973861 47.7895829,27.0082995 47.884984,27.0735401 C47.9805989,27.1407059 48.0539679,27.2412406 48.1063743,27.3755722 C48.2595294,27.7509733 48.4084064,27.9933262 48.5551444,28.0949305 C48.7020963,28.1978182 48.9097968,28.2480856 49.176107,28.2480856 C49.7130053,28.2480856 50.0999572,28.1075508 50.3183529,27.8243422 C50.5352513,27.5413476 50.6528984,27.0189947 50.6528984,26.2542888" id="Fill-1" fill="#231F20"></path>
                    <path d="M59.7824385,23.7371765 C59.7824385,25.0973904 60.0898182,26.1945027 60.7002995,27.0274439 C61.3127059,27.8591016 62.1097112,28.2755722 63.0925989,28.2755722 C64.0928128,28.2755722 64.8975187,27.8655187 65.508,27.0473369 C66.1171979,26.2291551 66.4224385,25.1343957 66.4224385,23.7634866 C66.4224385,22.3771765 66.1244706,21.2811337 65.5308877,20.4755722 C64.9373048,19.6702246 64.1330267,19.2682995 63.1189091,19.2682995 C62.1266096,19.2682995 61.3231872,19.6764278 60.7075722,20.4956791 C60.0917433,21.3134332 59.7824385,22.393861 59.7824385,23.7371765 M58.101369,23.8043422 C58.101369,23.1688342 58.2209412,22.5666952 58.459016,22.000492 C58.6970909,21.4321497 59.0461818,20.918139 59.5107807,20.4556791 C59.9986952,19.9763209 60.5554866,19.607123 61.1783743,19.3596364 C61.7993369,19.107016 62.4641497,18.9810267 63.1734545,18.9810267 C63.8885348,18.9810267 64.570246,19.1172834 65.2183743,19.3889412 C65.8645775,19.6595294 66.4224385,20.0432727 66.888107,20.5425241 C67.2887487,20.9696898 67.5865027,21.4501176 67.7826524,21.9805989 C67.9785882,22.5102246 68.0774118,23.1110802 68.0774118,23.7780321 C68.0774118,24.4368556 67.9514225,25.0650909 67.7030802,25.6608128 C67.4532406,26.2616684 67.1041497,26.7735401 66.6553797,27.1940749 C66.2063957,27.6178182 65.6662888,27.9502246 65.0378396,28.1936471 C64.4087487,28.4400642 63.767893,28.5607059 63.1189091,28.5607059 C62.4286417,28.5607059 61.7826524,28.4484064 61.1783743,28.2242353 C60.5721711,28.0017754 60.0393369,27.6753583 59.5758075,27.2475508 C59.074631,26.7754652 58.7032941,26.2638075 58.4620107,25.7059465 C58.2230802,25.1489412 58.101369,24.5166417 58.101369,23.8043422" id="Fill-3" fill="#231F20"></path>
                    <path d="M74.9102888,24.5984171 L78.0807701,24.5984171 L76.5515722,20.6508235 L74.9102888,24.5984171 Z M74.7571337,24.9464385 L74.1562781,26.4839786 C74.0974545,26.6266524 74.0555294,26.7798075 74.0260107,26.9152086 C73.9977754,27.0514652 73.9819465,27.1774545 73.9819465,27.2801283 C73.9819465,27.4531765 74.0178824,27.5999144 74.0891123,27.7102888 C74.1603422,27.8204492 74.2737112,27.9115722 74.4290053,27.9714652 C74.5190588,28.0037647 74.5862246,28.0257968 74.6300749,28.0362781 C74.6752086,28.0467594 74.712,28.0529626 74.7436578,28.0529626 C74.8610909,28.0709305 74.936385,28.0951016 74.9753155,28.1244064 C75.012107,28.1547807 75.0307166,28.1937112 75.0307166,28.2480428 C75.0307166,28.2848342 75.0099679,28.312 74.9648342,28.334246 C74.918631,28.3560642 74.8546738,28.3686845 74.7708235,28.3686845 C74.7487914,28.3686845 74.5967059,28.3560642 74.3134973,28.3299679 C74.0302888,28.3015187 73.7597005,28.2869733 73.5038717,28.2869733 C73.3077219,28.2869733 73.0799144,28.2974545 72.8219465,28.3152086 C72.5639786,28.334246 72.4088984,28.3404492 72.3543529,28.3404492 C72.243123,28.3404492 72.1594866,28.3299679 72.1004492,28.3036578 C72.0439786,28.2829091 72.0146738,28.2418396 72.0146738,28.1872941 C72.0146738,28.1485775 72.0345668,28.1158503 72.0722139,28.089754 C72.1100749,28.0668663 72.1845134,28.0467594 72.2955294,28.0279358 C72.4151016,28.0059037 72.5158503,27.9798075 72.5988449,27.9524278 C72.6816257,27.9220535 72.7611979,27.8874011 72.8347807,27.8484706 C72.992,27.7729626 73.1389519,27.6305027 73.2784171,27.4204492 C73.418738,27.2108235 73.5793797,26.8899679 73.7639786,26.4536043 L76.8129626,19.1885775 C76.847615,19.0931765 76.8841925,19.0292193 76.9229091,18.9872941 C76.9597005,18.9485775 77.0048342,18.927615 77.0531765,18.927615 C77.1023743,18.927615 77.1451551,18.9485775 77.1862246,18.9924278 C77.2249412,19.0334973 77.2679358,19.1090053 77.314139,19.2148877 L80.3346738,26.8268663 C80.4687914,27.1594866 80.5979893,27.4101818 80.7256898,27.5736043 C80.8516791,27.7404492 80.996492,27.8548877 81.1547807,27.9220535 C81.2136043,27.9481497 81.2816257,27.9714652 81.3562781,27.9890053 C81.4305027,28.0059037 81.5134973,28.0185241 81.6024813,28.0279358 C81.7316791,28.0467594 81.8153155,28.0690053 81.8565989,28.0951016 C81.8953155,28.1224813 81.9162781,28.1590588 81.9162781,28.2071872 C81.9162781,28.2480428 81.8910374,28.2829091 81.8429091,28.3036578 C81.7947807,28.3299679 81.7274011,28.3404492 81.6437647,28.3404492 C81.5368128,28.3404492 81.2888984,28.334246 80.9010909,28.3152086 C80.5160642,28.2974545 80.1834439,28.2869733 79.9066524,28.2869733 C79.7293262,28.2869733 79.4568128,28.3015187 79.0908235,28.3299679 C78.7235508,28.3560642 78.4478289,28.3686845 78.2589519,28.3686845 C78.1447273,28.3686845 78.0568128,28.3560642 77.9958503,28.332107 C77.9380963,28.3079358 77.9057968,28.2690053 77.9013048,28.2219465 C77.9013048,28.1810909 77.9267594,28.1464385 77.9810909,28.1179893 C78.0326417,28.089754 78.1406631,28.0604492 78.3010909,28.0279358 C78.5620535,28.0016257 78.754139,27.9502888 78.8705027,27.8747807 C78.9890053,27.7982032 79.0478289,27.6912513 79.0478289,27.5485775 C79.0478289,27.4488984 79.029861,27.3190588 78.9932834,27.1594866 C78.9588449,27.0001283 78.9094332,26.8071872 78.8463316,26.6435508 L78.2140321,24.9464385 L74.7571337,24.9464385 Z" id="Fill-5" fill="#231F20"></path>
                    <path d="M88.3191658,26.5941604 C88.3191658,27.010631 88.343123,27.3124492 88.4250481,27.4961925 C88.5099679,27.681861 88.6494332,27.8305241 88.8622674,27.9481711 C88.9251551,27.9734118 88.9882567,28.0059251 89.0637647,28.023893 C89.1392727,28.0405775 89.2147807,28.0709519 89.298631,28.0709519 L89.318738,28.0709519 C89.4864385,28.0709519 89.5734973,28.1485989 89.5734973,28.2303102 C89.5734973,28.2786524 89.5493262,28.3120214 89.5001283,28.3342674 C89.4496471,28.3603636 89.3784171,28.3708449 89.2838717,28.3708449 C89.2577754,28.3708449 89.1884706,28.3644278 89.0783102,28.3560856 C88.7018396,28.3299893 88.3474011,28.3152299 88.0192727,28.3152299 C87.8680428,28.3152299 87.6678289,28.3214332 87.4182032,28.3342674 C87.1696471,28.3488128 86.9957433,28.3560856 86.8979893,28.3560856 C86.796385,28.3560856 86.7165989,28.3404706 86.6575615,28.3152299 C86.6013048,28.2869947 86.5717861,28.2523422 86.5717861,28.2072086 C86.5717861,28.1588663 86.5991658,28.1225027 86.6545668,28.095123 C86.7103957,28.0690267 86.792107,28.052984 86.8979893,28.052984 C86.9200214,28.0489198 86.9557433,28.0425027 87.0049412,28.0279572 C87.1874011,27.9849626 87.3206631,27.9364064 87.4055829,27.8874225 C87.578631,27.7898824 87.6667594,27.6544813 87.7317861,27.479508 C87.7989519,27.3021818 87.7989519,27.0020749 87.7989519,26.5806845 L87.7989519,20.1943743 C87.7989519,20.012984 87.5931765,19.8713797 87.4622674,19.7676364 C87.3311444,19.6658182 87.1863316,19.5860321 86.9946738,19.5274225 C86.9429091,19.5148021 86.869754,19.4991872 86.7638717,19.4801497 C86.7461176,19.4760856 86.7367059,19.4739465 86.7270802,19.4739465 C86.7228021,19.4739465 86.7165989,19.4739465 86.7018396,19.4696684 C86.5110374,19.4414332 86.416492,19.3890267 86.416492,19.3071016 C86.416492,19.264107 86.4468663,19.2294545 86.5078289,19.2076364 C86.5677219,19.1866738 86.6620535,19.1740535 86.7910374,19.1740535 C86.8308235,19.1740535 86.960877,19.1845348 87.1801283,19.2012193 C87.4013048,19.2189733 87.6036578,19.2275294 87.785262,19.2275294 C87.8293262,19.2275294 87.898631,19.2275294 87.9886845,19.2211123 C88.0800214,19.2170481 88.1491123,19.2149091 88.2004492,19.2149091 C88.2226952,19.210631 88.2740321,19.2033583 88.3610909,19.190738 C88.4428021,19.1802567 88.511893,19.1740535 88.565369,19.1740535 C88.6545668,19.1740535 88.738631,19.195016 88.8149947,19.2380107 C88.8928556,19.2788663 88.9337112,19.3460321 89.000877,19.435016 L94.5700749,26.4399358 L94.5700749,20.8300963 C94.5700749,20.3265668 94.5088984,19.9678503 94.3317861,19.7539465 C94.1544599,19.5411123 93.8765989,19.435016 93.4686845,19.435016 C93.4299679,19.435016 93.4079358,19.4215401 93.3754225,19.3911658 C93.3426952,19.3637861 93.3324278,19.3312727 93.3324278,19.2946952 C93.3324278,19.2557647 93.356385,19.2232513 93.3951016,19.1990802 C93.4340321,19.1740535 93.4896471,19.1603636 93.5632299,19.1603636 C93.6457968,19.1603636 93.8485775,19.1708449 94.1683636,19.195016 C94.4902888,19.2170481 94.7660107,19.2275294 94.9968128,19.2275294 C95.1309305,19.2275294 95.260984,19.2275294 95.3878289,19.2211123 C95.5148877,19.2170481 95.6492193,19.210631 95.791893,19.2012193 C95.8042995,19.2012193 95.8220535,19.1990802 95.8432299,19.195016 C95.9690053,19.1802567 96.0571337,19.1740535 96.105262,19.1740535 C96.1807701,19.1740535 96.2404492,19.1866738 96.2793797,19.210631 C96.3183102,19.2358717 96.3401283,19.268385 96.3401283,19.3071016 C96.3401283,19.3702032 96.2404492,19.3826096 96.0466524,19.4256043 L96.0244064,19.3911658 L96.0057968,19.3911658 C95.787615,19.566139 95.623123,19.5190802 95.5178824,19.566139 C95.3450481,19.6615401 95.2391658,19.810631 95.1739251,19.9742674 C95.1067594,20.1387594 95.0881497,20.4431444 95.0881497,20.8425027 L95.0881497,28.1610053 C95.0881497,28.3259251 95.0575615,28.4358717 95.0229091,28.4914866 C94.9903957,28.5481711 94.925369,28.5764064 94.8457968,28.5764064 C94.7745668,28.5764064 94.703123,28.5543743 94.6391658,28.5092406 C94.574139,28.464107 94.5088984,28.377262 94.4051551,28.2480642 L88.3191658,20.6508449 L88.3191658,26.5941604 Z" id="Fill-7" fill="#231F20"></path>
                    <g id="Group-11" transform="translate(0.000000, 0.199572)">
                        <mask id="mask-2" fill="white">
                            <use xlink:href="#path-1"></use>
                        </mask>
                        <g id="Clip-10"></g>
                        <path d="M34.776385,33.0853476 L32.6399144,31.0312299 C34.5909305,28.0515508 35.3267594,25.5118717 35.5280428,22.4042781 L37.2777754,22.4042781 L37.2777754,20.1670588 L35.5896471,20.1670588 C35.5753155,18.9242781 35.4756364,16.7075936 35.3665455,15.8665241 C35.3823743,15.8633155 35.3979893,15.875508 35.4131765,15.8725134 C35.3605561,15.5330481 35.3004492,15.2701604 35.2405561,15.0305882 C35.2185241,14.897754 35.1954225,14.7880214 35.1780963,14.6979679 C35.1706096,14.6994652 35.163123,14.7039572 35.1562781,14.7054545 C35.0790588,14.4042781 35.0084706,14.1197861 34.9693262,13.7516578 C33.6692193,14.0040642 31.6690053,14.3629947 30.1256898,14.3629947 C28.905369,14.3629947 27.6474011,14.2789305 26.3881497,14.1152941 C22.8091123,13.6481283 20.0634439,12.8055615 17.7010909,11.3426738 C18.6022674,9.3031016 18.725262,7.24171123 18.7013048,6.12427807 L16.9393797,6.12427807 C16.9393797,14.2014973 10.138738,15.0350802 7.6035508,15.0104813 C7.29873797,15.004492 7.00419251,14.9638503 6.70986096,14.9285561 L6.51606417,14.9411765 C6.46515508,14.9360428 6.43050267,14.9315508 6.41403209,14.9330481 L6.41852406,14.9458824 L6.20825668,14.9375401 C6.20825668,14.9375401 5.7979893,17.6814973 5.7177754,20.1670588 L4.09360428,20.1670588 L4.09360428,22.4042781 L5.7404492,22.4042781 C5.89724064,25.388877 6.60162567,27.9298396 8.6322139,31.0312299 L6.49809626,33.0703743 C3.5633369,29.7929412 2.5751016,25.0064171 2.5751016,20.5719786 C2.5751016,10.6517647 10.6600214,2.61197861 20.5982032,2.61197861 C20.6099679,2.61197861 20.6221604,2.64213904 20.6343529,2.64213904 L20.6371337,2.64213904 L20.6401283,2.64213904 C20.6514652,2.64213904 20.6628021,2.61647059 20.6762781,2.61647059 C30.6153155,2.61647059 38.7002353,10.6727273 38.7002353,20.5931551 C38.7002353,25.026738 37.7111444,29.8072727 34.776385,33.0853476 L34.776385,33.0853476 Z M11.4063316,22.5296257 C11.4110374,23.275508 12.032,23.9167914 12.8001283,23.9167914 C13.5706096,23.9167914 14.1939251,23.275508 14.1984171,22.5296257 L16.769754,22.5296257 C16.4709305,25.1394652 14.6940321,26.2260963 12.5530695,26.2260963 C10.4647273,26.2260963 8.72312299,24.6412834 8.3635508,22.5296257 L11.4063316,22.5296257 Z M25.6054759,19.0761497 L24.7569198,20.2926203 L20.6401283,20.2926203 L20.6343529,20.2926203 L16.3432299,20.2926203 L16.334246,20.2926203 L15.4854759,19.0761497 L7.952,18.5180749 C7.96462032,18.2581818 7.97766845,18.0293048 7.99093048,17.9527273 C12.6681497,17.1672727 15.3235508,15.1418182 16.8221604,12.9182888 C19.4403422,14.466738 22.9028021,15.5773262 26.6478289,16.0663102 C28.0026952,16.2419251 29.3573476,16.3319786 30.6722139,16.3319786 C31.616385,16.3319786 32.4882567,16.2853476 33.3216257,16.1985027 C33.3413048,16.5108021 33.3727487,17.5516578 33.4035508,18.4992513 L25.6054759,19.0761497 Z M32.9115722,22.5296257 C32.549861,24.6412834 30.8103957,26.2260963 28.7211979,26.2260963 C26.5795936,26.2260963 24.8035508,25.1394652 24.5062246,22.5296257 L27.0760642,22.5296257 C27.0811979,23.275508 27.7045134,23.9167914 28.4743529,23.9167914 C29.240984,23.9167914 29.8634439,23.275508 29.8672941,22.5296257 L32.9115722,22.5296257 Z M31.307508,28.9563636 C29.2206631,32.8147594 25.0972406,35.7445989 20.6371337,37.106738 C16.1780963,35.7445989 12.3045134,32.6678075 9.96611765,28.9563636 C9.35028877,27.9779679 9.02344385,27.8494118 8.85317647,26.9634225 C9.87135829,27.6115508 11.1173476,28.0117647 12.5530695,28.0117647 C16.0570267,28.0117647 18.9543529,26.0096257 19.3434439,22.5296257 L20.6343529,22.5296257 L20.6401283,22.5296257 L21.9303957,22.5296257 C22.3214118,26.0096257 25.2174545,28.0117647 28.7211979,28.0117647 C30.1577754,28.0117647 31.4037647,27.6130481 32.4198075,26.9670588 C32.2687914,27.7858824 31.9421604,27.7828877 31.307508,28.9563636 L31.307508,28.9563636 Z M20.6762781,0.0143315508 C20.6628021,0.0143315508 20.6508235,0.015828877 20.6371337,0.015828877 C20.6236578,0.015828877 20.6114652,0.0143315508 20.5982032,0.0143315508 C9.21937968,0.0143315508 -8.55614973e-05,9.22181818 -8.55614973e-05,20.5803209 C-8.55614973e-05,26.8126203 2.78836364,32.3882353 7.17702674,36.1574332 L10.1943529,33.1347594 C12.8405561,36.3105882 16.5218396,38.6806417 20.6236578,39.7845989 L20.6236578,39.7860963 C20.6236578,39.7860963 20.6221604,39.7860963 20.6236578,39.7860963 C20.6251551,39.7860963 20.6236578,39.7860963 20.6236578,39.7860963 L20.6236578,39.7845989 C24.8493262,38.6806417 28.4202353,36.3105882 31.0679358,33.1347594 L34.0929626,36.1574332 C38.4807701,32.3882353 41.2722139,26.8126203 41.2722139,20.5803209 C41.2722139,9.22181818 32.0546738,0.0143315508 20.6762781,0.0143315508 L20.6762781,0.0143315508 Z" id="Fill-9" fill="#231F20" mask="url(#mask-2)"></path>
                    </g>
                    <path d="M25.6980107,31.1400428 C25.637262,30.8119144 23.3557647,30.8074225 22.286246,30.435016 L21.619508,30.435016 C21.4977968,30.8074225 21.128385,31.0792941 20.6800428,31.1287059 C20.2302032,31.0792941 19.8622888,30.8074225 19.7399358,30.435016 L19.0736257,30.435016 C17.981861,30.8074225 15.6913797,30.8427166 15.6687059,31.1612193 C16.5805775,31.4472086 19.1908449,32.1135187 20.5891337,32.1135187 C22.0789733,32.1135187 24.7403636,31.479508 25.6980107,31.1400428" id="Fill-12" fill="#231F20"></path>
                    <path d="M15.5127273,31.593754 C15.5127273,31.593754 15.5306952,31.8258396 15.5878075,31.918246 C15.5878075,31.918246 18.013262,34.8925775 20.6237433,34.8925775 L20.6237433,34.8970695 C20.6237433,34.8970695 20.6611765,34.8957861 20.6776471,34.8925775 C20.6943316,34.8957861 20.7304813,34.8925775 20.7304813,34.8925775 C23.4196791,34.8925775 25.7542246,31.8566417 25.7542246,31.8566417 C25.8119786,31.7633797 25.8562567,31.5357861 25.8562567,31.5357861 C24.3424599,32.029262 22.9262032,33.0656257 20.5890909,33.0656257 C18.2521925,33.0656257 17.028877,32.0711872 15.5127273,31.593754" id="Fill-14" fill="#231F20"></path>
                    <polygon id="Fill-16" fill="#231F20" points="22.5408342 28.0649626 22.1932406 26.8587594 20.6734545 27.3088128 19.1119572 26.8318075 18.7581604 28.0318075 20.6672513 29.2859251"></polygon>
                </g>
            </g>
        </g>
    </g>
</svg>